<svg width="512" height="512" viewBox="0 0 512 512" fill="none" xmlns="http://www.w3.org/2000/svg">
<path d="M256 512C397.385 512 512 397.385 512 256C512 114.615 397.385 0 256 0C114.615 0 0 114.615 0 256C0 397.385 114.615 512 256 512Z" fill="white"/>
<path d="M312.004 319.365C308.782 352.378 269.42 415.321 269.727 428.476C270.034 441.631 283.418 501.755 283.418 501.755H201.279L196.448 427.675C195.93 419.7 171.909 335.272 213.241 300.621L234.298 302.856L245.567 317.354C270.154 297.694 283.212 278.721 262.45 242.503L249.56 243.081C237.501 229.324 244.266 225.228 259.402 222.138C273.141 219.331 283.284 222.15 290.711 228.511C297.469 236.257 314.527 293.387 311.991 319.36L312.004 319.365Z" fill="#FED298"/>
<path d="M431.704 133.174L285.857 302.813L206.537 234.617L352.384 64.973L431.704 133.174Z" fill="#83CF8F"/>
<path d="M344.421 205.652C332.405 219.626 311.335 221.222 297.355 209.2C283.381 197.178 281.791 176.108 293.807 162.134C305.829 148.154 326.899 146.564 340.873 158.586C354.847 170.602 356.438 191.678 344.421 205.652ZM216.265 233.883L285.117 293.079L421.953 133.909L353.101 74.719L216.259 233.889L216.265 233.883Z" fill="#064E3B"/>
<path d="M396.866 121.435L369.207 97.655C361.913 106.142 349.125 107.105 340.645 99.811L239.213 217.789C247.694 225.083 248.663 237.87 241.369 246.351L269.028 270.131C276.316 261.65 289.103 260.687 297.59 267.981L399.021 150.004C390.534 142.71 389.577 129.923 396.871 121.436H396.866V121.435Z" fill="#83CF8F"/>
<path d="M340.916 158.532C354.926 170.578 356.516 191.69 344.476 205.688C332.436 219.698 311.324 221.282 297.32 209.248C283.316 197.214 281.726 176.096 293.766 162.092C305.806 148.088 326.918 146.498 340.922 158.532H340.916Z" fill="#064E3B"/>
<path d="M326.797 182.203C325.99 181.51 325.11 181.197 324.183 181.263C323.249 181.329 321.924 181.871 320.19 182.889L326.749 188.527C328.508 185.798 328.526 183.684 326.791 182.197L326.797 182.203ZM308.378 182.426C309.233 183.161 310.137 183.498 311.088 183.432C312.04 183.372 313.286 182.914 314.822 182.059L308.293 176.451C307.516 177.722 307.143 178.866 307.173 179.89C307.209 180.914 307.607 181.763 308.384 182.426H308.378ZM329.038 179.143C330.568 180.462 331.339 182.125 331.351 184.124C331.357 186.124 330.61 188.268 329.098 190.545L333.013 193.912L331.14 196.086L327.375 192.858C326.291 194.117 325.146 195.255 323.93 196.267C322.719 197.273 321.617 198.014 320.617 198.465L317.985 196.2C319.208 195.628 320.473 194.839 321.786 193.851C323.099 192.851 324.183 191.857 325.051 190.857L317.618 184.472C314.908 186.152 312.667 187.038 310.902 187.134C309.137 187.23 307.487 186.622 305.957 185.309C304.481 184.038 303.765 182.424 303.807 180.472C303.843 178.52 304.566 176.515 305.981 174.467L302.909 171.823L304.776 169.643L307.812 172.257C309.649 170.239 311.781 168.601 314.209 167.342L315.673 170.119C313.565 171.227 311.704 172.595 310.101 174.215L317.419 180.509C319.503 179.226 321.19 178.377 322.472 177.961C323.761 177.545 324.936 177.425 325.984 177.606C327.032 177.787 328.056 178.299 329.038 179.148V179.143Z" fill="white"/>
<path d="M371.279 76.778L276.057 304.27L169.681 259.746L264.908 32.248L371.279 76.778Z" fill="#83CF8F"/>
<path d="M304.421 182.468C296.573 201.212 275.022 210.048 256.271 202.2C237.533 194.352 228.691 172.795 236.539 154.05C244.387 135.312 265.938 126.47 284.689 134.324C303.433 142.167 312.263 163.718 304.421 182.468ZM179.643 255.663L271.979 294.308L361.322 80.856L268.992 42.205L179.643 255.657V255.663V255.663Z" fill="#064E3B"/>
<path d="M330.761 76.327L293.67 60.799C288.906 72.171 275.823 77.538 264.451 72.779L198.225 230.992C209.603 235.75 214.964 248.833 210.199 260.205L247.296 275.727C252.06 264.355 265.137 258.994 276.515 263.753L342.741 105.534C331.363 100.776 326.002 87.693 330.767 76.321L330.761 76.327Z" fill="#83CF8F"/>
<path d="M284.713 134.258C303.487 142.124 312.342 163.718 304.481 182.498C296.621 201.278 275.021 210.127 256.247 202.266C237.467 194.406 228.612 172.806 236.473 154.026C244.334 135.246 265.932 126.392 284.713 134.258Z" fill="#3FA344"/>
<path d="M277.961 163.88C276.877 163.428 275.853 163.392 274.907 163.784C273.949 164.176 272.745 165.193 271.269 166.85L280.075 170.536C280.997 167.073 280.286 164.85 277.967 163.88H277.961ZM258.729 170.38C259.879 170.862 260.94 170.904 261.915 170.519C262.897 170.127 264.041 169.23 265.366 167.809L256.614 164.147C256.222 165.737 256.222 167.068 256.608 168.134C256.987 169.2 257.698 169.947 258.734 170.381H258.729V170.38ZM279.28 159.911C281.328 160.772 282.701 162.248 283.394 164.35C284.081 166.446 284.026 168.952 283.219 171.855L288.465 174.053L287.242 176.974L282.195 174.866C281.484 176.553 280.671 178.137 279.744 179.612C278.81 181.088 277.907 182.226 277.021 183.045L273.491 181.563C274.569 180.551 275.629 179.292 276.671 177.811C277.707 176.317 278.508 174.902 279.074 173.559L269.112 169.391C266.841 172.071 264.793 173.764 262.98 174.463C261.161 175.168 259.222 175.089 257.174 174.228C255.198 173.403 253.897 171.957 253.271 169.897C252.645 167.831 252.723 165.488 253.506 162.856L249.392 161.133L250.615 158.212L254.687 159.917C255.922 157.176 257.608 154.731 259.722 152.581L262.198 155.002C260.367 156.875 258.879 158.941 257.741 161.194L267.559 165.302C269.306 163.248 270.781 161.784 271.992 160.905C273.203 160.032 274.383 159.508 275.546 159.333C276.702 159.164 277.949 159.357 279.28 159.911Z" fill="#7DBF76"/>
<path d="M311.998 43.982L312.564 290.604L197.243 290.869L196.683 44.247L311.998 43.982Z" fill="#83CF8F"/>
<path d="M291.411 167.344C291.459 187.666 275.028 204.17 254.711 204.218C234.389 204.266 217.885 187.835 217.831 167.512C217.789 147.196 234.22 130.686 254.537 130.644C274.859 130.59 291.368 147.027 291.411 167.344ZM204.845 283.243L304.933 283.008L304.403 51.613L204.309 51.842L204.845 283.237V283.243V283.243Z" fill="#064E3B"/>
<path d="M274.479 59.299L234.268 59.395C234.292 71.725 224.318 81.741 211.988 81.771L212.386 253.283C224.716 253.253 234.738 263.233 234.768 275.557L274.979 275.461C274.949 263.131 284.923 253.115 297.247 253.085L296.855 81.573C284.525 81.597 274.503 71.623 274.473 59.299H274.479V59.299Z" fill="#83CF8F"/>
<path d="M254.536 130.566C274.889 130.518 291.434 146.991 291.483 167.344C291.531 187.703 275.064 204.248 254.711 204.285C234.352 204.333 217.813 187.866 217.758 167.513C217.716 147.154 234.184 130.614 254.536 130.566Z" fill="#064E3B"/>
<path d="M259.813 160.483C258.644 160.489 257.687 160.856 256.958 161.585C256.235 162.314 255.512 163.723 254.802 165.819L264.343 165.801C263.843 162.253 262.331 160.482 259.814 160.488V160.483H259.813ZM244.61 173.939C245.857 173.939 246.851 173.56 247.604 172.831C248.357 172.09 249.062 170.813 249.724 169L240.231 169.018C240.496 170.638 241.008 171.861 241.767 172.692C242.526 173.529 243.472 173.945 244.604 173.939H244.61V173.939ZM259.487 156.315C261.716 156.315 263.547 157.14 265.004 158.809C266.45 160.471 267.371 162.808 267.751 165.796L273.443 165.784L273.449 168.952L267.98 168.958C267.98 170.795 267.847 172.572 267.558 174.283C267.275 176.006 266.883 177.409 266.383 178.511H262.552C263.148 177.156 263.642 175.59 264.028 173.813C264.407 172.042 264.594 170.428 264.588 168.964L253.794 168.988C252.74 172.343 251.511 174.698 250.108 176.047C248.705 177.408 246.892 178.077 244.663 178.083C242.519 178.089 240.76 177.264 239.387 175.607C238.008 173.951 237.17 171.758 236.869 169.024L232.4 169.03L232.394 165.868L236.815 165.862C236.887 162.85 237.484 159.947 238.61 157.146L241.826 158.417C240.862 160.856 240.302 163.338 240.127 165.856L250.77 165.832C251.583 163.266 252.378 161.339 253.149 160.062C253.92 158.779 254.805 157.845 255.811 157.231C256.817 156.629 258.034 156.321 259.479 156.315H259.487V156.315Z" fill="white"/>
<path d="M216.765 48.385L315.486 274.383L209.808 320.545L111.093 94.541L216.765 48.385Z" fill="#83CF8F"/>
<path d="M247.001 169.735C255.138 188.359 246.634 210.043 228.016 218.18C209.398 226.311 187.708 217.813 179.577 199.189C171.446 180.565 179.95 158.881 198.568 150.75C217.186 142.613 238.876 151.117 247.007 169.735H247.001ZM213.741 310.516L305.463 270.455L212.843 58.401L121.121 98.468L213.746 310.516H213.741Z" fill="#064E3B"/>
<path d="M188.449 77.369L151.599 93.463C156.538 104.763 151.376 117.929 140.077 122.862L208.73 280.039C220.036 275.1 233.196 280.262 238.129 291.561L274.979 275.461C270.04 264.167 275.202 251.007 286.501 246.068L217.843 88.891C206.543 93.836 193.383 88.668 188.444 77.369H188.449Z" fill="#83CF8F"/>
<path d="M198.532 150.684C217.186 142.535 238.912 151.057 247.061 169.711C255.21 188.365 246.7 210.103 228.04 218.246C209.38 226.395 187.654 217.879 179.505 199.219C171.355 180.565 179.878 158.839 198.532 150.684Z" fill="#064E3B"/>
<path d="M215.283 176.029C214.211 176.505 213.476 177.216 213.103 178.173C212.724 179.131 212.627 180.703 212.808 182.919L221.554 179.1C219.68 176.041 217.59 175.017 215.283 176.029ZM206.7 194.424C207.838 193.924 208.603 193.189 208.995 192.22C209.393 191.238 209.531 189.787 209.423 187.853L200.719 191.654C201.61 193.039 202.568 193.955 203.598 194.413C204.628 194.876 205.658 194.882 206.7 194.424ZM213.319 172.331C215.361 171.44 217.379 171.47 219.372 172.421C221.366 173.367 223.131 175.144 224.678 177.734L229.888 175.457L231.159 178.36L226.148 180.546C226.877 182.22 227.461 183.907 227.883 185.593C228.311 187.28 228.509 188.731 228.479 189.936L224.973 191.46C224.979 189.978 224.81 188.352 224.455 186.563C224.094 184.78 223.624 183.226 223.04 181.895L213.15 186.214C213.517 189.707 213.331 192.364 212.584 194.165C211.831 195.96 210.44 197.309 208.404 198.195C206.44 199.056 204.495 198.996 202.573 198.026C200.651 197.056 199.013 195.382 197.646 192.991L193.556 194.78L192.291 191.883L196.333 190.112C195.207 187.323 194.598 184.42 194.508 181.408L197.965 181.288C198.055 183.908 198.519 186.408 199.362 188.787L209.12 184.529C208.843 181.849 208.801 179.771 209 178.289C209.199 176.807 209.644 175.591 210.325 174.639C211 173.68 212 172.909 213.319 172.331Z" fill="white"/>
<path d="M266.233 259.012L248.994 297.278L265.431 325.527C284.151 357.703 191.947 346.367 199.591 316.233C200.368 313.161 206.186 293.772 209.168 290.713L230.49 268.818L240.254 245.96C250.145 216.072 278.226 232.395 266.233 259.012Z" fill="#FED298"/>
<path d="M247.393 236.491C249.802 231.359 261.933 232.142 261.704 237.864L256.861 252.729C256.861 252.729 244.694 247.736 241.134 249.946L247.393 236.491Z" fill="#FFF7DF"/>
<path d="M168.428 473.999H310.161V506.241C292.7 510 274.588 512 256.006 512C225.245 512 195.755 506.567 168.434 496.623V474H168.428V473.999Z" fill="#FFE356"/>
<path d="M175.307 473.999H303.27V457.303H175.307V473.999Z" fill="white"/>
</svg>
